<?xml version="1.0" encoding="utf-8"?>
<!-- Generator: Adobe Illustrator 22.0.0, SVG Export Plug-In . SVG Version: 6.00 Build 0)  -->
<svg version="1.1" id="Capa_1" xmlns="http://www.w3.org/2000/svg" xmlns:xlink="http://www.w3.org/1999/xlink" x="0px" y="0px"
	 viewBox="0 0 1000 1000" style="enable-background:new 0 0 1000 1000;" xml:space="preserve">
<style type="text/css">
	.st0{fill:#333333;}
	.st1{fill:#0077E8;}
	.st2{fill:#FFB700;}
</style>
<g>
	<path class="st2" d="M770.3,254.5c-72.2-72.2-168.2-112-270.3-112c-102.1,0-198.1,39.8-270.3,112c-72.2,72.2-112,168.2-112,270.3
		c0,17.7,1.2,35.2,3.5,52.4c2.2,16.4,5.5,32.6,9.8,48.5c17.2,63.5,50.8,121.7,98.6,169.5c12.7,12.7,26.2,24.4,40.3,35.1
		c13.2,10,27,19.1,41.2,27.2v-48.7c-14.6-9.7-28.4-20.5-41.2-32.3c-52.6-48.1-90.1-112.5-104.5-185.1c-3.4-17-5.5-34.4-6.2-52.1
		c-0.2-4.8-0.3-9.5-0.3-14.4c0-188,153-341,341-341c4.8,0,9.6,0.1,14.4,0.3c1.2,0,2.4,0.1,3.6,0.2C697.7,193.6,841,342.8,841,524.8
		c0,4.8-0.1,9.6-0.3,14.4c-0.7,17.7-2.8,35.2-6.2,52.1c-14.4,72.6-51.9,137-104.5,185.1c-12.9,11.8-26.7,22.6-41.2,32.3v48.7
		c14.3-8.1,28-17.2,41.2-27.2c14.1-10.7,27.6-22.4,40.3-35.1c47.8-47.8,81.4-106,98.6-169.5c4.3-15.8,7.6-32,9.8-48.5
		c2.3-17.2,3.5-34.7,3.5-52.4C882.3,422.7,842.5,326.7,770.3,254.5z"/>
	<path class="st2" d="M311.2,387.2v470.2c-14.3-8.1-28-17.2-41.2-27.2V428.5L311.2,387.2z"/>
	<polygon class="st2" points="392.1,458.6 392.1,783.4 350.9,783.4 350.9,499.8 	"/>
	<polygon class="st2" points="649.1,499.8 649.1,783.4 607.9,783.4 607.9,458.6 	"/>
	<path class="st2" d="M730,428.5v401.8c-13.2,10-27,19.1-41.2,27.2V387.2L730,428.5z"/>
	<polygon class="st2" points="730,428.5 730,486.8 470.8,227.6 500,198.5 	"/>
	<path class="st2" d="M878.7,577.2c-2.2,16.4-5.5,32.6-9.8,48.5l-34.4-34.4c3.4-17,5.5-34.4,6.2-52.1L878.7,577.2z"/>
	<polygon class="st2" points="649.1,499.8 649.1,558.1 470.8,379.9 500,350.7 	"/>
	
		<rect x="452.4" y="423.9" transform="matrix(0.7071 -0.7071 0.7071 0.7071 -239.9889 491.2813)" class="st2" width="41.2" height="222.9"/>
	
		<rect x="348.8" y="555.8" transform="matrix(0.7072 -0.707 0.707 0.7072 -291.8664 410.1013)" class="st2" width="0.9" height="3.4"/>
	<polygon class="st2" points="525.2,732.8 496,762 350.9,616.8 350.9,558.5 	"/>
	<path class="st2" d="M517.9,184.3c-1.2-0.1-2.4-0.1-3.6-0.2l1.7-1.7L517.9,184.3z"/>
	<path class="st2" d="M165.5,591.3l-34.4,34.4c-4.3-15.8-7.6-32-9.8-48.5l38-38C160,556.9,162.1,574.3,165.5,591.3z"/>
	<polygon class="st2" points="529.2,227.6 270,486.8 270,428.5 500,198.5 	"/>
	
		<rect x="348.8" y="555.8" transform="matrix(0.7071 -0.7071 0.7071 0.7071 -291.89 410.2042)" class="st2" width="0.9" height="3.4"/>
	<polygon class="st2" points="529.2,379.9 350.9,558.1 350.9,499.8 500,350.7 	"/>
</g>
</svg>
